<mxfile host="app.diagrams.net" agent="Mozilla/5.0 (Windows NT 10.0; Win64; x64) AppleWebKit/537.36 (KHTML, like Gecko) Chrome/137.0.0.0 Safari/537.36" version="27.0.9">
  <diagram name="Page-1" id="mN79uk2QFmivKMGCKcYW">
    <mxGraphModel dx="2276" dy="743" grid="1" gridSize="10" guides="1" tooltips="1" connect="1" arrows="1" fold="1" page="1" pageScale="1" pageWidth="850" pageHeight="1100" math="0" shadow="0">
      <root>
        <mxCell id="0" />
        <mxCell id="1" parent="0" />
        <mxCell id="NfmPSXwigL8IRk4kGnXc-22" value="" style="rounded=1;whiteSpace=wrap;html=1;strokeWidth=2;container=1;collapsible=0;recursiveResize=1;fillColor=#f5f5f5;strokeColor=#666666;fontColor=#333333;dropTarget=1;dashed=1;shadow=1;arcSize=2;" vertex="1" parent="1">
          <mxGeometry x="403" y="170" width="330" height="410" as="geometry" />
        </mxCell>
        <mxCell id="NfmPSXwigL8IRk4kGnXc-24" value="Notifications/&lt;div&gt;CoreComm&lt;/div&gt;" style="text;html=1;align=center;verticalAlign=middle;whiteSpace=wrap;rounded=0;" vertex="1" parent="NfmPSXwigL8IRk4kGnXc-22">
          <mxGeometry x="240" y="10" width="77" height="30" as="geometry" />
        </mxCell>
        <mxCell id="NfmPSXwigL8IRk4kGnXc-21" value="" style="rounded=1;whiteSpace=wrap;html=1;strokeWidth=2;container=1;collapsible=0;recursiveResize=1;fillColor=#f5f5f5;strokeColor=#666666;fontColor=#333333;dropTarget=1;dashed=1;shadow=1;arcSize=2;" vertex="1" parent="1">
          <mxGeometry x="60" y="170" width="330" height="410" as="geometry" />
        </mxCell>
        <mxCell id="NfmPSXwigL8IRk4kGnXc-23" value="Customer" style="text;html=1;align=center;verticalAlign=middle;whiteSpace=wrap;rounded=0;" vertex="1" parent="NfmPSXwigL8IRk4kGnXc-21">
          <mxGeometry x="13" y="10" width="60" height="30" as="geometry" />
        </mxCell>
        <mxCell id="NfmPSXwigL8IRk4kGnXc-4" value="Customer Apps" style="shape=mxgraph.gcp2.doubleRect;strokeColor=#666666;shadow=1;strokeWidth=2;rounded=1;absoluteArcSize=1;arcSize=2;fillColor=#f5f5f5;fontColor=#333333;spacingTop=10;spacingLeft=28;spacingBottom=7;spacingRight=8;dropTarget=0;" vertex="1" parent="1">
          <mxGeometry x="73.00000000000011" y="300" width="170.01" height="50" as="geometry" />
        </mxCell>
        <mxCell id="NfmPSXwigL8IRk4kGnXc-5" value="PCF" style="editableCssRules=.*;html=1;fontColor=#999999;shape=image;verticalLabelPosition=middle;verticalAlign=top;labelPosition=right;align=left;spacingLeft=5;part=1;points=[];imageAspect=0;image=data:image/svg+xml,PD94bWwgdmVyc2lvbj0iMS4wIiBlbmNvZGluZz0idXRmLTgiPz4NCjwhLS0gR2VuZXJhdG9yOiBBZG9iZSBJbGx1c3RyYXRvciAyMy4wLjEsIFNWRyBFeHBvcnQgUGx1Zy1JbiAuIFNWRyBWZXJzaW9uOiA2LjAwIEJ1aWxkIDApICAtLT4NCjxzdmcgdmVyc2lvbj0iMS4xIiBpZD0iTGF5ZXJfMSIgeG1sbnM9Imh0dHA6Ly93d3cudzMub3JnLzIwMDAvc3ZnIiB4bWxuczp4bGluaz0iaHR0cDovL3d3dy53My5vcmcvMTk5OS94bGluayIgeD0iMHB4IiB5PSIwcHgiDQoJIHZpZXdCb3g9IjAgMCAxMDAwIDEwMDAiIHN0eWxlPSJlbmFibGUtYmFja2dyb3VuZDpuZXcgMCAwIDEwMDAgMTAwMDsiIHhtbDpzcGFjZT0icHJlc2VydmUiPg0KPHN0eWxlIHR5cGU9InRleHQvY3NzIj4NCgkuc3Qwe2ZpbGw6IzA0ODg3NTt9DQoJLnN0MXtmaWxsOiMwMEFFOUU7fQ0KPC9zdHlsZT4NCjxnPg0KCTxwYXRoIGNsYXNzPSJzdDAiIGQ9Ik01ODcuOCw3NTEuOWMwLTE2MC40LTEzMi4zLTI5Mi43LTI5Mi43LTI5Mi43UzIuNSw1OTEuNSwyLjUsNzUxLjljMCwyNS4zLDIuOCw1My41LDExLjMsNzguOA0KCQljMi44LDguNCw1LjYsMTkuNyw4LjQsMjhjMi44LDUuNiw1LjYsOC40LDExLjMsOC40aDc4LjhjNi0wLjQsMTAuOC01LjIsMTEuMy0xMS4zYzAtMi44LDAtMi44LTIuOC01LjZsLTguNS0xNi43DQoJCUM3MCw3MzUsMTE1LDYxOS42LDIxMy41LDU3NC42Yzk4LjUtNDIuMiwyMTMuOSwyLjgsMjU4LjksMTAxLjNjMTEuMywyNS4zLDE2LjksNTAuNywxNi45LDc4LjhjMCwyNS4zLTUuNiw1My41LTE2LjksNzguOA0KCQljLTIuOCw1LjYtNS42LDExLjMtOC40LDE5LjdjLTIuOCw1LjYsMCwxMS4zLDUuNiwxNC4xYzIuOCwwLDIuOCwyLjgsNS42LDIuOGg4MS42YzUuNiwwLDguNC0yLjgsMTEuMy04LjRjMi44LTguNCw1LjYtMTkuNyw4LjQtMjgNCgkJYzUuNi0yOCwxMS4zLTU2LjMsMTEuMy04MS42TDU4Ny44LDc1MS45eiIvPg0KCTxwYXRoIGNsYXNzPSJzdDEiIGQ9Ik02MjcuMywzNjMuNWMtMjA1LjUsMC0zNzEuNCwxNjYuMS0zNzEuNCwzNzEuNWMwLDMxLjEsMi44LDY0LjcsMTEuMyw5NS43YzIuOCw4LjQsNS42LDE5LjcsOC40LDI4DQoJCWMyLjgsNS42LDUuNiw4LjQsMTEuMyw4LjRoNzguOGM2LTAuNCwxMC44LTUuMiwxMS4zLTExLjN2LTUuNmMtMi44LTUuNi01LjYtMTQuMS04LjQtMTkuN0MzMTcuOCw2ODcsMzkxLDUyOS40LDUzMS43LDQ3OC43DQoJCXMzMDEsMjIuOCwzNTEuNywxNjMuNGMyMi41LDYwLjgsMjIuNSwxMjcuNywwLDE4OC42Yy0yLjgsNS42LTUuNiwxNC4xLTguNCwxOS43czAsMTEuMyw1LjYsMTQuMUg5NjVjNS42LDAsOC40LTIuOCwxMS4zLTguNA0KCQljMi44LTguNCw1LjYtMTkuNyw4LjQtMjhjNTMuNS0xOTctNjQuNy00MDIuNS0yNjQuNi00NTMuMWMtMjgtOC40LTU5LjEtMTEuMy05Mi45LTExLjNWMzYzLjV6Ii8+DQoJPHBhdGggY2xhc3M9InN0MCIgZD0iTTgzMi43LDQ1OS4yYzAuOC0xODEuMS0xNDUuNC0zMjguNS0zMjYuNS0zMjkuM2MtMC45LDAtMS44LDAtMi44LDBjLTE4MS4xLTAuOC0zMjguNSwxNDUuNC0zMjkuMywzMjYuNQ0KCQljMCwwLjksMCwxLjgsMCwyLjdjMCwxMS4zLDAsMTkuNywyLjgsMzEuMWg5NS43Yy0xNC4xLTEyNi43LDgxLjYtMjQyLDIwOC4zLTI1Ni4xYzEyNi42LTE0LjEsMjQyLDgxLjYsMjU2LjEsMjA4LjN2MjgNCgkJYy0yLjgsNDUtMTkuNyw5MC4xLTQ3LjgsMTI2LjdjLTIuOCw1LjYtMi44LDE0LjEsMi44LDE2LjljMi44LDIuOCw1LjYsMi44LDguNCwyLjhoODQuNGM1LjYsMCw4LjQtMi44LDExLjMtNS42DQoJCWMyMi41LTQyLjIsMzYuNi05Mi45LDM2LjYtMTQwLjdMODMyLjcsNDU5LjJMODMyLjcsNDU5LjJ6Ii8+DQo8L2c+DQo8L3N2Zz4NCg==;spacingTop=-7;spacing=0;resizeHeight=0;resizeWidth=0;movable=0;connectable=0;allowArrows=0;" vertex="1" parent="NfmPSXwigL8IRk4kGnXc-4">
          <mxGeometry width="30" height="30" relative="1" as="geometry">
            <mxPoint x="5" y="5" as="offset" />
          </mxGeometry>
        </mxCell>
        <mxCell id="NfmPSXwigL8IRk4kGnXc-6" value="BS" style="text;html=1;align=right;verticalAlign=top;whiteSpace=wrap;rounded=0;spacing=4;spacingTop=-6;fontColor=#999999;spacingRight=7;connectable=0;allowArrows=0;" vertex="1" parent="NfmPSXwigL8IRk4kGnXc-4">
          <mxGeometry x="140.14" width="29.87" height="15" as="geometry" />
        </mxCell>
        <mxCell id="NfmPSXwigL8IRk4kGnXc-25" style="edgeStyle=orthogonalEdgeStyle;rounded=0;orthogonalLoop=1;jettySize=auto;html=1;strokeWidth=2;" edge="1" parent="1" source="NfmPSXwigL8IRk4kGnXc-7" target="NfmPSXwigL8IRk4kGnXc-10">
          <mxGeometry relative="1" as="geometry" />
        </mxCell>
        <mxCell id="NfmPSXwigL8IRk4kGnXc-7" value="Customer Apps" style="shape=mxgraph.gcp2.doubleRect;strokeColor=#666666;shadow=1;strokeWidth=2;rounded=1;absoluteArcSize=1;arcSize=2;fillColor=#f5f5f5;fontColor=#333333;spacingTop=10;spacingLeft=28;spacingRight=8;spacingBottom=7;verticalAlign=middle;dropTarget=0;" vertex="1" parent="1">
          <mxGeometry x="73" y="420.0000000000001" width="170.01" height="50" as="geometry" />
        </mxCell>
        <mxCell id="NfmPSXwigL8IRk4kGnXc-8" value="Compute Engine" style="editableCssRules=.*;html=1;fontColor=#999999;shape=image;verticalLabelPosition=middle;verticalAlign=top;labelPosition=right;align=left;spacingLeft=5;part=1;points=[];imageAspect=0;image=data:image/svg+xml,PHN2ZyB4bWxucz0iaHR0cDovL3d3dy53My5vcmcvMjAwMC9zdmciIHhtbG5zOnY9Imh0dHBzOi8vdmVjdGEuaW8vbmFubyIgd2lkdGg9IjIwIiBoZWlnaHQ9IjIwIiB2aWV3Qm94PSIwIDAgMjAgMjAiPiYjeGE7CTxzdHlsZSB0eXBlPSJ0ZXh0L2NzcyI+JiN4YTsJLnN0MHtmaWxsOiM0Mjg1ZjQ7fSYjeGE7CS5zdDF7ZmlsbDojNjY5ZGY2O30mI3hhOwkuc3Qye2ZpbGw6I2FlY2JmYTt9JiN4YTsJPC9zdHlsZT4mI3hhOwk8cGF0aCBjbGFzcz0ic3QyIiBkPSJNNyA3aDZ2Nkg3eiIvPiYjeGE7CTxwYXRoIGNsYXNzPSJzdDEiIGQ9Ik05IDBoMnY0SDl6TTUgMGgydjRINXptOCAwaDJ2NGgtMnoiLz4mI3hhOwk8cGF0aCBjbGFzcz0ic3QwIiBkPSJNOSAxNmgydjRIOXptLTQgMGgydjRINXptOCAwaDJ2NGgtMnptMy01VjloNHYyem0wIDR2LTJoNHYyem0wLThWNWg0djJ6Ii8+JiN4YTsJPHBhdGggY2xhc3M9InN0MSIgZD0iTTAgMTFWOWg0djJ6bTAgNHYtMmg0djJ6bTAtOFY1aDR2MnoiLz4mI3hhOwk8cGF0aCBjbGFzcz0ic3QyIiBkPSJNMyAzdjE0aDE0VjN6bTEyIDEySDVWNWgxMHoiLz4mI3hhOwk8cGF0aCBjbGFzcz0ic3QxIiBkPSJNMTAgMTBsLTMgM2g2eiIvPiYjeGE7CTxwYXRoIGNsYXNzPSJzdDAiIGQ9Ik0xMyA3bC0zIDMgMyAzeiIvPiYjeGE7PC9zdmc+;spacingTop=-7;spacing=0;connectable=0;allowArrows=0;" vertex="1" parent="NfmPSXwigL8IRk4kGnXc-7">
          <mxGeometry width="30" height="30" relative="1" as="geometry">
            <mxPoint x="5" y="5" as="offset" />
          </mxGeometry>
        </mxCell>
        <mxCell id="NfmPSXwigL8IRk4kGnXc-9" value="BS" style="text;html=1;align=right;verticalAlign=top;whiteSpace=wrap;rounded=0;spacing=4;spacingTop=-6;fontColor=#999999;spacingRight=7;connectable=0;allowArrows=0;" vertex="1" parent="NfmPSXwigL8IRk4kGnXc-7">
          <mxGeometry x="140.14" width="29.87" height="15" as="geometry" />
        </mxCell>
        <mxCell id="NfmPSXwigL8IRk4kGnXc-35" style="edgeStyle=orthogonalEdgeStyle;rounded=0;orthogonalLoop=1;jettySize=auto;html=1;entryX=0;entryY=0.5;entryDx=0;entryDy=0;strokeWidth=2;" edge="1" parent="1" source="NfmPSXwigL8IRk4kGnXc-10" target="NfmPSXwigL8IRk4kGnXc-12">
          <mxGeometry relative="1" as="geometry" />
        </mxCell>
        <mxCell id="NfmPSXwigL8IRk4kGnXc-10" value="&amp;lt;Text&amp;gt;" style="strokeWidth=2;html=1;shape=stencil(zVbBcsIgEP0ajulgqGM9dqK9tZcePK8RlREhA1Tt35eEZDQmcXDrTHtj3w7v7bIPBsIyu4WCk5Qq2HPCZiRNZ8Lw3HloBg587FfbkElpCI8hfKlDsEW5ocIOYAQsJQ8Z64ze8aNYuZpBqC03wpVZNif0lZSUlLAs10p5EqGVbWUu8p4MhCoLOwUy+kTHQee7BkJUeIk9d9y00HODH4uAkPTtDi2cFEZp+oySmqO0pm2tp3QcK/d+v97oSixS6zGdTSLVPjGddaY2ihX7vRdjpTBKFCeFumH02h7RE1tgJobz4mM6i75lQ52xzCNDjybLlpDvNkZ/qVVvlQWUD3In0aT3+sDP5fc+fP39NwRSqAuCCYIBTO4Xpl2CaVxYU5wSOAmbGO2gPIQWvQSz4YmnSdYSNi332iPnRRfurxbTMIbh7xpGTCeX2vIbt8DjHYtV6IAvWbbWht8w7FpIGT4TN1TvcvV/NyUlaFP2n3+TGzzGaltnDhUaPokV8AM=);whiteSpace=wrap;fillColor=#f5f5f5;strokeColor=#666666;container=0;collapsible=0;recursiveResize=1;dropTarget=1;spacingRight=24;fontColor=#333333;shadow=1;spacingTop=10;spacingLeft=28;align=center;" vertex="1" parent="1">
          <mxGeometry x="323" y="425" width="160" height="40" as="geometry" />
        </mxCell>
        <mxCell id="NfmPSXwigL8IRk4kGnXc-11" value="Confluent Kafka" style="editableCssRules=.*;html=1;fontColor=#999999;shape=image;verticalLabelPosition=middle;verticalAlign=top;labelPosition=right;align=left;spacingLeft=5;part=1;points=[];imageAspect=0;image=data:image/svg+xml,PD94bWwgdmVyc2lvbj0iMS4wIiBlbmNvZGluZz0iVVRGLTgiPz4KPCEtLSBVcGxvYWRlZCB0bzogU1ZHIFJlcG8sIHd3dy5zdmdyZXBvLmNvbSwgR2VuZXJhdG9yOiBTVkcgUmVwbyBNaXhlciBUb29scyAtLT4KPHN2ZyB3aWR0aD0iODAwcHgiIGhlaWdodD0iODAwcHgiIHZpZXdCb3g9Ii03OC41IDAgNDEzIDQxMyIgdmVyc2lvbj0iMS4xIiB4bWxucz0iaHR0cDovL3d3dy53My5vcmcvMjAwMC9zdmciIHhtbG5zOnhsaW5rPSJodHRwOi8vd3d3LnczLm9yZy8xOTk5L3hsaW5rIiBwcmVzZXJ2ZUFzcGVjdFJhdGlvPSJ4TWlkWU1pZCI+CiAgICA8Zz4KICAgICAgICA8cGF0aCBkPSJNODcuOTMyMDY5MiwzNi43MTQxODEgQzgzLjM4MjkzNiwzMi4xNDI3NDgyIDc3LjAzNjQ0OTEsMjkuMzE5NjA5NiA2OS45ODA4MzI3LDI5LjMxOTYwOTYgQzYyLjk1MTk3NTksMjkuMzE5NjA5NiA1Ni42NTQ1NDgzLDMyLjE0Mjc0ODIgNTIuMTU4OTM0MywzNi43MTQxODEgTDUyLjAyOTU5NjIsMzYuNzE0MTgxIEM0Ny40OTM4NDI4LDQxLjI2MzMxNDMgNDQuNjcwNzA0Miw0Ny42MTQyNjEgNDQuNjcwNzA0Miw1NC42NDMxMTc5IEM0NC42NzA3MDQyLDYxLjY5ODczNDMgNDcuNDkzODQyOCw2Ny45OTYxNjE4IDUyLjAyOTU5NjIsNzIuNTE4NTM1NSBMNTIuMTU4OTM0Myw3Mi42MjExMTM5IEM1Ni42NTQ1NDgzLDc3LjE3MDI0NzIgNjIuOTUxOTc1OSw3OS45NjY2MjYxIDY5Ljk4MDgzMjcsNzkuOTY2NjI2MSBDNzcuMDM2NDQ5MSw3OS45NjY2MjYxIDgzLjM4MjkzNiw3Ny4xNzAyNDcyIDg3LjkzMjA2OTIsNzIuNjIxMTEzOSBMODcuOTk4OTY4Miw3Mi41MTg1MzU1IEM5Mi41NTcwMjEzLDY3Ljk5NjE2MTggOTUuMzUzNDAwMiw2MS42OTg3MzQzIDk1LjM1MzQwMDIsNTQuNjQzMTE3OSBDOTUuMzUzNDAwMiw0Ny42MTQyNjEgOTIuNTU3MDIxMyw0MS4yNjMzMTQzIDg3Ljk5ODk2ODIsMzYuNzE0MTgxIEw4Ny45MzIwNjkyLDM2LjcxNDE4MSBaIE02OS45ODA4MzI3LDM4My4zNTM2NzIgQzc3LjAzNjQ0OTEsMzgzLjM1MzY3MiA4My4zODI5MzYsMzgwLjQ4MTQ3NSA4Ny45MzIwNjkyLDM3NS45ODU4NjEgTDg3Ljk5ODk2ODIsMzc1Ljg1MjA2MyBDOTIuNTU3MDIxMywzNzEuMzY1MzY4IDk1LjM1MzQwMDIsMzY1LjAxNDQyMiA5NS4zNTM0MDAyLDM1OC4wMzQ2MjQgQzk1LjM1MzQwMDIsMzUwLjk3OTAwOCA5Mi41NTcwMjEzLDM0NC42NTQ4MjEgODcuOTk4OTY4MiwzNDAuMDgzMzg4IEw4Ny45MzIwNjkyLDM0MC4wODMzODggQzgzLjM4MjkzNiwzMzUuNDU4NDM2IDc3LjAzNjQ0OTEsMzMyLjY2MjA1NyA2OS45ODA4MzI3LDMzMi42NjIwNTcgQzYyLjk1MTk3NTksMzMyLjY2MjA1NyA1Ni42NTQ1NDgzLDMzNS40NTg0MzYgNTIuMTU4OTM0MywzNDAuMDgzMzg4IEw1Mi4wMjk1OTYyLDM0MC4wODMzODggQzQ3LjQ5Mzg0MjgsMzQ0LjY1NDgyMSA0NC42NzA3MDQyLDM1MC45NzkwMDggNDQuNjcwNzA0MiwzNTguMDM0NjI0IEM0NC42NzA3MDQyLDM2NS4wMTQ0MjIgNDcuNDkzODQyOCwzNzEuMzY1MzY4IDUyLjAyOTU5NjIsMzc1Ljg1MjA2MyBMNTIuMTU4OTM0MywzNzUuOTg1ODYxIEM1Ni42NTQ1NDgzLDM4MC40ODE0NzUgNjIuOTUxOTc1OSwzODMuMzUzNjcyIDY5Ljk4MDgzMjcsMzgzLjM1MzY3MiBaIE0yMDcuOTUzMzY3LDMwNi42MzM4NzkgQzIxNC4yMjg0OTUsMzA0Ljk4ODE2MyAyMTkuOTEwNDUyLDMwMC45NjA4NDIgMjIzLjM3NTgyMSwyOTQuODczMDMxIEwyMjMuODQ0MTE0LDI5My45ODU1MDQgQzIyNi45MjU5MjksMjg4LjIwOTg4OSAyMjcuNDg3ODgxLDI4MS41NDY3NDcgMjI1Ljg0MjE2NSwyNzUuNjQxNzk0IEMyMjQuMTgzMDY5LDI2OS4zMTc2MDcgMjIwLjEwNjY4OSwyNjMuNzI0ODQ5IDIxNC4wMzIyNTgsMjYwLjIyMzggTDIxMy42Nzk5MjMsMjU5Ljk4NzQyMyBDMjA3Ljc2MTU5LDI1Ni43NDUwNTEgMjAxLjAxODE2OSwyNTYuMDQwMzgxIDE5NC44MjMzMiwyNTcuNzEyODU3IEMxODguNTI1ODkzLDI1OS4yODI3NTQgMTgyLjg3MDY5NiwyNjMuNDg4NDcyIDE3OS40MjMxNjYsMjY5LjUyNzIyMyBDMTc1LjkzMTAzNywyNzUuNTA3OTk2IDE3NS4xOTk2MDgsMjgyLjQwNzUxNCAxNzYuODcyMDg0LDI4OC43NTg0NjEgQzE3OC41OTgwNzgsMjk1LjAwMjM2OSAxODIuNjM0MzE5LDMwMC42NDg2NDcgMTg4LjY2ODYxLDMwNC4xNzY0NTUgTDE4OC43MDg3NSwzMDQuMTc2NDU1IEMxOTQuNzU2NDIxLDMwNy42NTA3NDQgMjAxLjYwNjg4LDMwOC4yNzk1OTUgMjA3Ljk1MzM2NywzMDYuNjMzODc5IFogTTk1Ljk2ODg3MTIsMTgwLjM4NjUxMiBDODkuMzE0NjQ4OSwxNzMuNzUwMTI5IDgwLjE0NTAyMzUsMTY5LjU5MzQ3IDY5Ljk4MDgzMjcsMTY5LjU5MzQ3IEM1OS44NTY3ODEzLDE2OS41OTM0NyA1MC43MDk0NTU2LDE3My43NTAxMjkgNDQuMDY4NjEzMSwxODAuMzg2NTEyIEMzNy40NTg5OTAxLDE4Ny4wMDA1OTUgMzMuMzgyNjEsMTk2LjE0NzkyMSAzMy4zODI2MSwyMDYuMjg1MzUyIEMzMy4zODI2MSwyMTYuNDQ5NTQzIDM3LjQ1ODk5MDEsMjI1LjYyMzYyOCA0NC4wNjg2MTMxLDIzMi4zMTM1MyBDNTAuNzA5NDU1NiwyMzguODk2MzkzIDU5Ljg1Njc4MTMsMjQzLjAyNjI5MiA2OS45ODA4MzI3LDI0My4wMjYyOTIgQzgwLjE0NTAyMzUsMjQzLjAyNjI5MiA4OS4zMTQ2NDg5LDIzOC44OTYzOTMgOTUuOTY4ODcxMiwyMzIuMzEzNTMgQzEwMi41OTE4NzQsMjI1LjYyMzYyOCAxMDYuNjY4MjU0LDIxNi40NDk1NDMgMTA2LjY2ODI1NCwyMDYuMjg1MzUyIEMxMDYuNjY4MjU0LDE5Ni4xNDc5MjEgMTAyLjU5MTg3NCwxODcuMDAwNTk1IDk1Ljk2ODg3MTIsMTgwLjM4NjUxMiBaIE04MS4zNTgxMjU3LDEzNy4yMjMyNjYgQzk2LjA4NDgyOTUsMTM5LjY0OTQ3IDEwOS4zMzUyOTUsMTQ2LjcwNTA4NiAxMTkuNDQ1OTY3LDE1Ni44OTYwMzcgTDExOS41MjYyNDUsMTU2Ljg5NjAzNyBDMTIxLjEzMTgyMiwxNTguNTE0OTkzIDEyMi43MDE3MTksMTYwLjI2Nzc0NyAxMjQuMTUxMTk4LDE2Mi4wNDI4MDEgTDE0OS40MzQ1NjYsMTQ3LjQxNDIxNiBDMTQ2LjAzNjA5NiwxMzcuMTQyOTg3IDE0NS44Nzk5OTksMTI2LjQwMzQ2NCAxNDguNjA5NDc4LDExNi4zNDE4NTIgQzE1Mi4yMTc1NjUsMTAyLjg1NTAxIDE2MC45NTkwMzcsOTAuNzgxOTY3NCAxNzQuMDYyMzI1LDgzLjIwNDUzODYgTDE3NC40OTQ5MzgsODIuOTQ1ODYyNCBDMTg3LjQ1NTUwOCw3NS42MDAzNTAyIDIwMi4xOTExMzIsNzQuMDgzOTcyNSAyMTUuNDk1MTE3LDc3LjY5MjA1OTUgQzIyOC45NjQxMTksODEuMjk1Njg2NiAyNDEuMTE3NDQsOTAuMDc3Mjk3NyAyNDguNjgxNDg5LDEwMy4xNzE2NjUgTDI0OC42ODE0ODksMTAzLjE5ODQyNSBDMjU2LjIwOTg1OSwxMTYuMjEyNTE0IDI1Ny43Mzk2MTYsMTMxLjE1Nzc1NSAyNTQuMTQ0OTA5LDE0NC41OTEwNzcgQzI1MC41NjM1ODIsMTU4LjA2OSAyNDEuNzgxOTcxLDE3MC4yMjIzMjEgMjI4LjY5MjA2MywxNzcuNzQ2MjMxIEwyMjUuMjQwMDc0LDE3OS43ODg4ODEgTDIyNC44ODc3MzksMTc5Ljc4ODg4MSBDMjEyLjc3OTAxNiwxODUuNTYwMDM2IDE5OS40NjE2NTIsMTg2LjQ1MjAyMyAxODcuMjMyNTExLDE4My4yMzY0MSBDMTc3LjE4ODczOSwxODAuNTY5MzY5IDE2Ny45NzQ1MTQsMTc0Ljk3NjYxMSAxNjAuNzYyOCwxNjcuMDA2NzA4IEwxMzUuNTE5NTcxLDE4MS41OTA2OTQgQzEzOC40MTg1MjgsMTg5LjI3MDcwMiAxNDAuMDI4NTY0LDE5Ny41NTcyNiAxNDAuMDI4NTY0LDIwNi4yODUzNTIgQzE0MC4wMjg1NjQsMjE0Ljk4NjY4NCAxMzguNDE4NTI4LDIyMy4zNzU4MjEgMTM1LjUxOTU3MSwyMzEuMTA5MzQ3IEwxNjAuNzYyOCwyNDUuNjM5ODE0IEMxNjcuOTc0NTE0LDIzNy41NjczMzMgMTc3LjE4ODczOSwyMzIuMDc3MTUzIDE4Ny4yMzI1MTEsMjI5LjQxMDExMiBDMjAwLjcwMTUxNCwyMjUuNzI2MjA2IDIxNS42Mzc4MzUsMjI3LjI5NjEwMyAyMjguNjkyMDYzLDIzNC45MDAyOTIgTDIyOS41MjYwNzEsMjM1LjI5Mjc2NiBMMjI5LjUyNjA3MSwyMzUuMzQ2Mjg1IEMyNDIuMTM4NzY1LDI0Mi45NzI3NzMgMjUwLjYwMzcyMSwyNTQuNzg3MTQgMjU0LjE0NDkwOSwyNjguMTEzNDI0IEMyNTcuNzM5NjE2LDI4MS40NjY0NjggMjU2LjIwOTg1OSwyOTYuNDE2MTY5IDI0OC42ODE0ODksMzA5LjQ1NzAxNyBMMjQ4LjIyNjU3NiwzMTAuMzcxMzA0IEwyNDguMTczMDU3LDMxMC4yOTEwMjUgQzI0MC42MDkwMDgsMzIyLjg2MzU4IDIyOC42OTIwNjMsMzMxLjM4MjA1NSAyMTUuNTM1MjU2LDMzNC45ODU2ODMgQzIwMi4wMzUwMzQsMzM4LjU0MDI1IDE4Ny4xMDMxNzMsMzM3LjAyMzg3MyAxNzQuMDYyMzI1LDMyOS41MjY3MjMgTDE3NC4wNjIzMjUsMzI5LjQxOTY4NCBDMTYwLjk1OTAzNywzMjEuODQyMjU1IDE1Mi4yMTc1NjUsMzA5Ljc0MjQ1MyAxNDguNjA5NDc4LDI5Ni4yODY4MzEgQzE0NS44Nzk5OTksMjg2LjI1MTk3OCAxNDYuMDM2MDk2LDI3NS41MDc5OTYgMTQ5LjQzNDU2NiwyNjUuMjQxMjI2IEwxMjQuMTUxMTk4LDI1MC42NTcyNCBDMTIyLjcwMTcxOSwyNTIuNDM2NzU0IDEyMS4xMzE4MjIsMjU0LjEwOTIzIDExOS41MjYyNDUsMjU1LjcyODE4NiBMMTE5LjQ0NTk2NywyNTUuODA0MDA1IEMxMDkuMzM1Mjk1LDI2NS45NDU4OTYgOTYuMDg0ODI5NSwyNzMuMDAxNTEyIDgxLjM1ODEyNTcsMjc1LjM1MTg5OCBMODEuMzU4MTI1NywzMDQuNTY4OTI5IEM5MS44NTIzNTE2LDMwNi43NjMyMTcgMTAxLjI1ODM1NCwzMTIuMDE3MDIgMTA4LjYzMDYyNSwzMTkuMzg0ODMyIEwxMDguNjY2MzA1LDMxOS40NjUxMSBDMTE4LjU0NTA2LDMyOS4yOTAzNDYgMTI0LjY1OTYzLDM0Mi45ODIzNDUgMTI0LjY1OTYzLDM1OC4wMzQ2MjQgQzEyNC42NTk2MywzNzMuMDM3ODQ0IDExOC41NDUwNiwzODYuNjQ1MTA0IDEwOC42NjYzMDUsMzk2LjUyMzg1OSBMMTA4LjYzMDYyNSwzOTYuNjc5OTU3IEM5OC42ODQ5NzEzLDQwNi41NTg3MTIgODUuMDMzMTExNyw0MTIuNjczMjgyIDY5Ljk4MDgzMjcsNDEyLjY3MzI4MiBDNTUuMDA4ODMyNSw0MTIuNjczMjgyIDQxLjMzOTEzMzIsNDA2LjU1ODcxMiAzMS40MjAyMzg4LDM5Ni42Nzk5NTcgTDMxLjM4NDU1OTMsMzk2LjY3OTk1NyBMMzEuMzg0NTU5MywzOTYuNTIzODU5IEMyMS40OTI0MjQ1LDM4Ni42NDUxMDQgMTUuMzY0NDc0NSwzNzMuMDM3ODQ0IDE1LjM2NDQ3NDUsMzU4LjAzNDYyNCBDMTUuMzY0NDc0NSwzNDIuOTgyMzQ1IDIxLjQ5MjQyNDUsMzI5LjI5MDM0NiAzMS4zODQ1NTkzLDMxOS40NjUxMSBMMzEuMzg0NTU5MywzMTkuMzg0ODMyIEwzMS40MjAyMzg4LDMxOS4zODQ4MzIgQzM4Ljc3OTEzMDcsMzEyLjAxNzAyIDQ4LjE5ODUxMjUsMzA2Ljc2MzIxNyA1OC42NjU5Nzg4LDMwNC41Njg5MjkgTDU4LjY2NTk3ODgsMjc1LjM1MTg5OCBDNDMuOTI1ODk1MiwyNzMuMDAxNTEyIDMwLjcxNTU2OTEsMjY1Ljk0NTg5NiAyMC42MTgyNzczLDI1NS44MDQwMDUgTDIwLjUxMTIzODksMjU1LjcyODE4NiBDNy44ODk2MjQxOCwyNDMuMDUzMDUyIDAsMjI1LjYyMzYyOCAwLDIwNi4yODUzNTIgQzAsMTg3LjAwMDU5NSA3Ljg4OTYyNDE4LDE2OS41NzExNzEgMjAuNTExMjM4OSwxNTYuODk2MDM3IEwyMC42MTgyNzczLDE1Ni44OTYwMzcgQzMwLjcxNTU2OTEsMTQ2LjcwNTA4NiA0My45MjU4OTUyLDEzOS42NDk0NyA1OC42NjU5Nzg4LDEzNy4yMjMyNjYgTDU4LjY2NTk3ODgsMTA4LjEzNTU3MyBDNDguMTk4NTEyNSwxMDUuODYxMDA2IDM4Ljc3OTEzMDcsMTAwLjYxMTY2MyAzMS40MjAyMzg4LDkzLjI5MjkxMDUgTDMxLjM4NDU1OTMsOTMuMjkyOTEwNSBMMzEuMzg0NTU5Myw5My4yMTI2MzE3IEMyMS40OTI0MjQ1LDgzLjI4NDgxNzQgMTUuMzY0NDc0NSw2OS42OTUzOTY5IDE1LjM2NDQ3NDUsNTQuNjQzMTE3OSBDMTUuMzY0NDc0NSwzOS42NjY2NTc3IDIxLjQ5MjQyNDUsMjUuOTQ3ODk5MSAzMS4zODQ1NTkzLDE2LjA2OTE0NDEgTDMxLjQyMDIzODgsMTYuMDIwMDg0OCBDNDEuMzM5MTMzMiw2LjExNDU3MDI0IDU1LjAwODgzMjUsMCA2OS45ODA4MzI3LDAgQzg1LjAzMzExMTcsMCA5OC42ODQ5NzEzLDYuMTE0NTcwMjQgMTA4LjYzMDYyNSwxNi4wMjAwODQ4IEwxMDguNjMwNjI1LDE2LjA2OTE0NDEgTDEwOC42NjYzMDUsMTYuMDY5MTQ0MSBDMTE4LjU0NTA2LDI1Ljk0Nzg5OTEgMTI0LjY1OTYzLDM5LjY2NjY1NzcgMTI0LjY1OTYzLDU0LjY0MzExNzkgQzEyNC42NTk2Myw2OS42OTUzOTY5IDExOC41NDUwNiw4My4yODQ4MTc0IDEwOC42NjYzMDUsOTMuMjEyNjMxNyBMMTA4LjYzMDYyNSw5My4yOTI5MTA1IEMxMDEuMjU4MzU0LDEwMC42MTE2NjMgOTEuODUyMzUxNiwxMDUuODYxMDA2IDgxLjM1ODEyNTcsMTA4LjEzNTU3MyBMODEuMzU4MTI1NywxMzcuMjIzMjY2IFogTTIyMy4zNzU4MjEsMTE3LjgzMTQ3IEwyMjMuMTY2MjA0LDExNy41MTkyNzUgQzIxOS42NzQwNzUsMTExLjYzNjYyMSAyMTQuMTA4MDc3LDEwNy43MTYzMzkgMjA3Ljk1MzM2NywxMDYuMDE3MTA0IEMyMDEuNjA2ODgsMTA0LjM0NDYyOCAxOTQuNzU2NDIxLDEwNS4wNTM3NTggMTg4LjY2ODYxLDEwOC41MjgwNDcgTDE4OC43MDg3NSwxMDguNTI4MDQ3IEMxODIuNjM0MzE5LDExMS45NzU1NzYgMTc4LjU3MTMxOSwxMTcuNjIxODUzIDE3Ni44NzIwODQsMTIzLjk0NjA0MSBDMTc1LjE5OTYwOCwxMzAuMjE2NzA4IDE3NS45MzEwMzcsMTM3LjE0Mjk4NyAxNzkuNDIzMTY2LDE0My4xNzcyNzggTDE3OS41MzkxMjQsMTQzLjMzNzgzNiBDMTgzLjA0MDE3MywxNDkuMjkxODQ4IDE4OC42MDYxNzEsMTUzLjI4Nzk1IDE5NC44MjMzMiwxNTQuOTA2OTA2IEMyMDEuMDcxNjg4LDE1Ni42NTk2NiAyMDguMDMzNjQ2LDE1NS45MjgyMzEgMjE0LjAzMjI1OCwxNTIuNDI3MTgyIEwyMTQuMzU3ODMzLDE1Mi4yNzEwODUgQzIyMC4yNjI3ODcsMTQ4Ljc0MzI3NiAyMjQuMTk2NDQ5LDE0My4xNzcyNzggMjI1Ljg0MjE2NSwxMzcuMDYyNzA4IEMyMjcuNTE0NjQsMTMwLjc2NTI4IDIyNi44NTAxMSwxMjMuODY1NzYyIDIyMy4zNzU4MjEsMTE3LjgzMTQ3IFoiIGZpbGw9IiMxQTE5MTkiPgoNPC9wYXRoPgogICAgPC9nPgo8L3N2Zz4=;spacingTop=-7;spacing=0;resizeWidth=0;resizable=0;perimeterSpacing=0;connectable=0;allowArrows=0;" vertex="1" parent="NfmPSXwigL8IRk4kGnXc-10">
          <mxGeometry x="5" y="5" width="30" height="30" as="geometry" />
        </mxCell>
        <mxCell id="NfmPSXwigL8IRk4kGnXc-12" value="Opt Change consumer" style="strokeColor=#666666;shadow=1;strokeWidth=2;rounded=1;absoluteArcSize=1;arcSize=2;fillColor=#f5f5f5;fontColor=#333333;spacingTop=10;spacingLeft=28;dropTarget=0;" vertex="1" parent="1">
          <mxGeometry x="573" y="425.0000000000001" width="160" height="40" as="geometry" />
        </mxCell>
        <mxCell id="NfmPSXwigL8IRk4kGnXc-13" value="Cloud Run" style="editableCssRules=.*;html=1;fontColor=#999999;shape=image;verticalLabelPosition=middle;verticalAlign=top;labelPosition=right;align=left;spacingLeft=5;part=1;points=[];imageAspect=0;image=data:image/svg+xml,PHN2ZyB4bWxucz0iaHR0cDovL3d3dy53My5vcmcvMjAwMC9zdmciIHhtbG5zOnY9Imh0dHBzOi8vdmVjdGEuaW8vbmFubyIgd2lkdGg9IjM2NS40NjQ5OTY3NzA0MjQ5MyIgaGVpZ2h0PSIzNzkuMjIyOTk0NDYzNTc3OTUiIHZpZXdCb3g9IjAgMCA5Ni42OTU5OTkxNDU1MDc4MSAxMDAuMzM1OTk4NTM1MTU2MjUiPiYjeGE7PHN0eWxlIHR5cGU9InRleHQvY3NzIj4mI3hhOwkuc3Qwe2ZpbGw6IzQyODVmNDt9JiN4YTsJLnN0MXtmaWxsOiNhZWNiZmE7fSYjeGE7PC9zdHlsZT4mI3hhOwk8cGF0aCBjbGFzcz0ic3QwIiBkPSJNMjkuNzk0IDEwMC4zMzZMNDYuOTIgNTAuMTY4aDQ5Ljc3NnpNMCA5OS42NzFsMTIuOTc2LTQ5LjUwMkgyOS4yMkwxNi44OTcgOTIuMDU0eiIvPiYjeGE7CTxwYXRoIGNsYXNzPSJzdDEiIGQ9Ik0yOS43OTQgMEw0Ni45MiA1MC4xNjhoNDkuNzc2ek0wIC42NjZsMTIuOTc2IDQ5LjUwMkgyOS4yMkwxNi44OTcgOC4yODN6Ii8+JiN4YTs8L3N2Zz4=;spacingTop=-7;spacing=0;connectable=0;allowArrows=0;" vertex="1" parent="NfmPSXwigL8IRk4kGnXc-12">
          <mxGeometry width="30" height="30" relative="1" as="geometry">
            <mxPoint x="5" y="5" as="offset" />
          </mxGeometry>
        </mxCell>
        <mxCell id="NfmPSXwigL8IRk4kGnXc-14" value="BS" style="text;html=1;align=right;verticalAlign=top;whiteSpace=wrap;rounded=0;spacing=4;spacingTop=-6;fontColor=#999999;connectable=0;allowArrows=0;" vertex="1" parent="NfmPSXwigL8IRk4kGnXc-12">
          <mxGeometry x="138" width="22" height="15" as="geometry" />
        </mxCell>
        <mxCell id="NfmPSXwigL8IRk4kGnXc-32" style="edgeStyle=orthogonalEdgeStyle;rounded=0;orthogonalLoop=1;jettySize=auto;html=1;strokeWidth=2;fillColor=#f8cecc;strokeColor=#b85450;" edge="1" parent="1" source="NfmPSXwigL8IRk4kGnXc-15" target="NfmPSXwigL8IRk4kGnXc-17">
          <mxGeometry relative="1" as="geometry" />
        </mxCell>
        <mxCell id="NfmPSXwigL8IRk4kGnXc-33" style="edgeStyle=orthogonalEdgeStyle;rounded=0;orthogonalLoop=1;jettySize=auto;html=1;entryX=0;entryY=0.25;entryDx=0;entryDy=0;curved=1;strokeWidth=2;fillColor=#d5e8d4;strokeColor=#82b366;" edge="1" parent="1" source="NfmPSXwigL8IRk4kGnXc-15" target="NfmPSXwigL8IRk4kGnXc-12">
          <mxGeometry relative="1" as="geometry" />
        </mxCell>
        <mxCell id="NfmPSXwigL8IRk4kGnXc-15" value="&amp;lt;Text&amp;gt;" style="strokeWidth=2;html=1;shape=stencil(zVbBcsIgEP0ajulgqGM9dqK9tZcePK8RlREhA1Tt35eEZDQmcXDrTHtj3w7v7bIPBsIyu4WCk5Qq2HPCZiRNZ8Lw3HloBg587FfbkElpCI8hfKlDsEW5ocIOYAQsJQ8Z64ze8aNYuZpBqC03wpVZNif0lZSUlLAs10p5EqGVbWUu8p4MhCoLOwUy+kTHQee7BkJUeIk9d9y00HODH4uAkPTtDi2cFEZp+oySmqO0pm2tp3QcK/d+v97oSixS6zGdTSLVPjGddaY2ihX7vRdjpTBKFCeFumH02h7RE1tgJobz4mM6i75lQ52xzCNDjybLlpDvNkZ/qVVvlQWUD3In0aT3+sDP5fc+fP39NwRSqAuCCYIBTO4Xpl2CaVxYU5wSOAmbGO2gPIQWvQSz4YmnSdYSNi332iPnRRfurxbTMIbh7xpGTCeX2vIbt8DjHYtV6IAvWbbWht8w7FpIGT4TN1TvcvV/NyUlaFP2n3+TGzzGaltnDhUaPokV8AM=);whiteSpace=wrap;fillColor=#f5f5f5;strokeColor=#666666;container=0;collapsible=0;recursiveResize=1;dropTarget=1;spacingRight=24;fontColor=#333333;shadow=1;spacingTop=10;spacingLeft=28;align=center;" vertex="1" parent="1">
          <mxGeometry x="323" y="305" width="160" height="40" as="geometry" />
        </mxCell>
        <mxCell id="NfmPSXwigL8IRk4kGnXc-16" value="On-prem Kafka" style="editableCssRules=.*;html=1;fontColor=#999999;shape=image;verticalLabelPosition=middle;verticalAlign=top;labelPosition=right;align=left;spacingLeft=5;part=1;points=[];imageAspect=0;image=data:image/svg+xml,PD94bWwgdmVyc2lvbj0iMS4wIiBlbmNvZGluZz0iVVRGLTgiPz4KPCEtLSBVcGxvYWRlZCB0bzogU1ZHIFJlcG8sIHd3dy5zdmdyZXBvLmNvbSwgR2VuZXJhdG9yOiBTVkcgUmVwbyBNaXhlciBUb29scyAtLT4KPHN2ZyB3aWR0aD0iODAwcHgiIGhlaWdodD0iODAwcHgiIHZpZXdCb3g9Ii03OC41IDAgNDEzIDQxMyIgdmVyc2lvbj0iMS4xIiB4bWxucz0iaHR0cDovL3d3dy53My5vcmcvMjAwMC9zdmciIHhtbG5zOnhsaW5rPSJodHRwOi8vd3d3LnczLm9yZy8xOTk5L3hsaW5rIiBwcmVzZXJ2ZUFzcGVjdFJhdGlvPSJ4TWlkWU1pZCI+CiAgICA8Zz4KICAgICAgICA8cGF0aCBkPSJNODcuOTMyMDY5MiwzNi43MTQxODEgQzgzLjM4MjkzNiwzMi4xNDI3NDgyIDc3LjAzNjQ0OTEsMjkuMzE5NjA5NiA2OS45ODA4MzI3LDI5LjMxOTYwOTYgQzYyLjk1MTk3NTksMjkuMzE5NjA5NiA1Ni42NTQ1NDgzLDMyLjE0Mjc0ODIgNTIuMTU4OTM0MywzNi43MTQxODEgTDUyLjAyOTU5NjIsMzYuNzE0MTgxIEM0Ny40OTM4NDI4LDQxLjI2MzMxNDMgNDQuNjcwNzA0Miw0Ny42MTQyNjEgNDQuNjcwNzA0Miw1NC42NDMxMTc5IEM0NC42NzA3MDQyLDYxLjY5ODczNDMgNDcuNDkzODQyOCw2Ny45OTYxNjE4IDUyLjAyOTU5NjIsNzIuNTE4NTM1NSBMNTIuMTU4OTM0Myw3Mi42MjExMTM5IEM1Ni42NTQ1NDgzLDc3LjE3MDI0NzIgNjIuOTUxOTc1OSw3OS45NjY2MjYxIDY5Ljk4MDgzMjcsNzkuOTY2NjI2MSBDNzcuMDM2NDQ5MSw3OS45NjY2MjYxIDgzLjM4MjkzNiw3Ny4xNzAyNDcyIDg3LjkzMjA2OTIsNzIuNjIxMTEzOSBMODcuOTk4OTY4Miw3Mi41MTg1MzU1IEM5Mi41NTcwMjEzLDY3Ljk5NjE2MTggOTUuMzUzNDAwMiw2MS42OTg3MzQzIDk1LjM1MzQwMDIsNTQuNjQzMTE3OSBDOTUuMzUzNDAwMiw0Ny42MTQyNjEgOTIuNTU3MDIxMyw0MS4yNjMzMTQzIDg3Ljk5ODk2ODIsMzYuNzE0MTgxIEw4Ny45MzIwNjkyLDM2LjcxNDE4MSBaIE02OS45ODA4MzI3LDM4My4zNTM2NzIgQzc3LjAzNjQ0OTEsMzgzLjM1MzY3MiA4My4zODI5MzYsMzgwLjQ4MTQ3NSA4Ny45MzIwNjkyLDM3NS45ODU4NjEgTDg3Ljk5ODk2ODIsMzc1Ljg1MjA2MyBDOTIuNTU3MDIxMywzNzEuMzY1MzY4IDk1LjM1MzQwMDIsMzY1LjAxNDQyMiA5NS4zNTM0MDAyLDM1OC4wMzQ2MjQgQzk1LjM1MzQwMDIsMzUwLjk3OTAwOCA5Mi41NTcwMjEzLDM0NC42NTQ4MjEgODcuOTk4OTY4MiwzNDAuMDgzMzg4IEw4Ny45MzIwNjkyLDM0MC4wODMzODggQzgzLjM4MjkzNiwzMzUuNDU4NDM2IDc3LjAzNjQ0OTEsMzMyLjY2MjA1NyA2OS45ODA4MzI3LDMzMi42NjIwNTcgQzYyLjk1MTk3NTksMzMyLjY2MjA1NyA1Ni42NTQ1NDgzLDMzNS40NTg0MzYgNTIuMTU4OTM0MywzNDAuMDgzMzg4IEw1Mi4wMjk1OTYyLDM0MC4wODMzODggQzQ3LjQ5Mzg0MjgsMzQ0LjY1NDgyMSA0NC42NzA3MDQyLDM1MC45NzkwMDggNDQuNjcwNzA0MiwzNTguMDM0NjI0IEM0NC42NzA3MDQyLDM2NS4wMTQ0MjIgNDcuNDkzODQyOCwzNzEuMzY1MzY4IDUyLjAyOTU5NjIsMzc1Ljg1MjA2MyBMNTIuMTU4OTM0MywzNzUuOTg1ODYxIEM1Ni42NTQ1NDgzLDM4MC40ODE0NzUgNjIuOTUxOTc1OSwzODMuMzUzNjcyIDY5Ljk4MDgzMjcsMzgzLjM1MzY3MiBaIE0yMDcuOTUzMzY3LDMwNi42MzM4NzkgQzIxNC4yMjg0OTUsMzA0Ljk4ODE2MyAyMTkuOTEwNDUyLDMwMC45NjA4NDIgMjIzLjM3NTgyMSwyOTQuODczMDMxIEwyMjMuODQ0MTE0LDI5My45ODU1MDQgQzIyNi45MjU5MjksMjg4LjIwOTg4OSAyMjcuNDg3ODgxLDI4MS41NDY3NDcgMjI1Ljg0MjE2NSwyNzUuNjQxNzk0IEMyMjQuMTgzMDY5LDI2OS4zMTc2MDcgMjIwLjEwNjY4OSwyNjMuNzI0ODQ5IDIxNC4wMzIyNTgsMjYwLjIyMzggTDIxMy42Nzk5MjMsMjU5Ljk4NzQyMyBDMjA3Ljc2MTU5LDI1Ni43NDUwNTEgMjAxLjAxODE2OSwyNTYuMDQwMzgxIDE5NC44MjMzMiwyNTcuNzEyODU3IEMxODguNTI1ODkzLDI1OS4yODI3NTQgMTgyLjg3MDY5NiwyNjMuNDg4NDcyIDE3OS40MjMxNjYsMjY5LjUyNzIyMyBDMTc1LjkzMTAzNywyNzUuNTA3OTk2IDE3NS4xOTk2MDgsMjgyLjQwNzUxNCAxNzYuODcyMDg0LDI4OC43NTg0NjEgQzE3OC41OTgwNzgsMjk1LjAwMjM2OSAxODIuNjM0MzE5LDMwMC42NDg2NDcgMTg4LjY2ODYxLDMwNC4xNzY0NTUgTDE4OC43MDg3NSwzMDQuMTc2NDU1IEMxOTQuNzU2NDIxLDMwNy42NTA3NDQgMjAxLjYwNjg4LDMwOC4yNzk1OTUgMjA3Ljk1MzM2NywzMDYuNjMzODc5IFogTTk1Ljk2ODg3MTIsMTgwLjM4NjUxMiBDODkuMzE0NjQ4OSwxNzMuNzUwMTI5IDgwLjE0NTAyMzUsMTY5LjU5MzQ3IDY5Ljk4MDgzMjcsMTY5LjU5MzQ3IEM1OS44NTY3ODEzLDE2OS41OTM0NyA1MC43MDk0NTU2LDE3My43NTAxMjkgNDQuMDY4NjEzMSwxODAuMzg2NTEyIEMzNy40NTg5OTAxLDE4Ny4wMDA1OTUgMzMuMzgyNjEsMTk2LjE0NzkyMSAzMy4zODI2MSwyMDYuMjg1MzUyIEMzMy4zODI2MSwyMTYuNDQ5NTQzIDM3LjQ1ODk5MDEsMjI1LjYyMzYyOCA0NC4wNjg2MTMxLDIzMi4zMTM1MyBDNTAuNzA5NDU1NiwyMzguODk2MzkzIDU5Ljg1Njc4MTMsMjQzLjAyNjI5MiA2OS45ODA4MzI3LDI0My4wMjYyOTIgQzgwLjE0NTAyMzUsMjQzLjAyNjI5MiA4OS4zMTQ2NDg5LDIzOC44OTYzOTMgOTUuOTY4ODcxMiwyMzIuMzEzNTMgQzEwMi41OTE4NzQsMjI1LjYyMzYyOCAxMDYuNjY4MjU0LDIxNi40NDk1NDMgMTA2LjY2ODI1NCwyMDYuMjg1MzUyIEMxMDYuNjY4MjU0LDE5Ni4xNDc5MjEgMTAyLjU5MTg3NCwxODcuMDAwNTk1IDk1Ljk2ODg3MTIsMTgwLjM4NjUxMiBaIE04MS4zNTgxMjU3LDEzNy4yMjMyNjYgQzk2LjA4NDgyOTUsMTM5LjY0OTQ3IDEwOS4zMzUyOTUsMTQ2LjcwNTA4NiAxMTkuNDQ1OTY3LDE1Ni44OTYwMzcgTDExOS41MjYyNDUsMTU2Ljg5NjAzNyBDMTIxLjEzMTgyMiwxNTguNTE0OTkzIDEyMi43MDE3MTksMTYwLjI2Nzc0NyAxMjQuMTUxMTk4LDE2Mi4wNDI4MDEgTDE0OS40MzQ1NjYsMTQ3LjQxNDIxNiBDMTQ2LjAzNjA5NiwxMzcuMTQyOTg3IDE0NS44Nzk5OTksMTI2LjQwMzQ2NCAxNDguNjA5NDc4LDExNi4zNDE4NTIgQzE1Mi4yMTc1NjUsMTAyLjg1NTAxIDE2MC45NTkwMzcsOTAuNzgxOTY3NCAxNzQuMDYyMzI1LDgzLjIwNDUzODYgTDE3NC40OTQ5MzgsODIuOTQ1ODYyNCBDMTg3LjQ1NTUwOCw3NS42MDAzNTAyIDIwMi4xOTExMzIsNzQuMDgzOTcyNSAyMTUuNDk1MTE3LDc3LjY5MjA1OTUgQzIyOC45NjQxMTksODEuMjk1Njg2NiAyNDEuMTE3NDQsOTAuMDc3Mjk3NyAyNDguNjgxNDg5LDEwMy4xNzE2NjUgTDI0OC42ODE0ODksMTAzLjE5ODQyNSBDMjU2LjIwOTg1OSwxMTYuMjEyNTE0IDI1Ny43Mzk2MTYsMTMxLjE1Nzc1NSAyNTQuMTQ0OTA5LDE0NC41OTEwNzcgQzI1MC41NjM1ODIsMTU4LjA2OSAyNDEuNzgxOTcxLDE3MC4yMjIzMjEgMjI4LjY5MjA2MywxNzcuNzQ2MjMxIEwyMjUuMjQwMDc0LDE3OS43ODg4ODEgTDIyNC44ODc3MzksMTc5Ljc4ODg4MSBDMjEyLjc3OTAxNiwxODUuNTYwMDM2IDE5OS40NjE2NTIsMTg2LjQ1MjAyMyAxODcuMjMyNTExLDE4My4yMzY0MSBDMTc3LjE4ODczOSwxODAuNTY5MzY5IDE2Ny45NzQ1MTQsMTc0Ljk3NjYxMSAxNjAuNzYyOCwxNjcuMDA2NzA4IEwxMzUuNTE5NTcxLDE4MS41OTA2OTQgQzEzOC40MTg1MjgsMTg5LjI3MDcwMiAxNDAuMDI4NTY0LDE5Ny41NTcyNiAxNDAuMDI4NTY0LDIwNi4yODUzNTIgQzE0MC4wMjg1NjQsMjE0Ljk4NjY4NCAxMzguNDE4NTI4LDIyMy4zNzU4MjEgMTM1LjUxOTU3MSwyMzEuMTA5MzQ3IEwxNjAuNzYyOCwyNDUuNjM5ODE0IEMxNjcuOTc0NTE0LDIzNy41NjczMzMgMTc3LjE4ODczOSwyMzIuMDc3MTUzIDE4Ny4yMzI1MTEsMjI5LjQxMDExMiBDMjAwLjcwMTUxNCwyMjUuNzI2MjA2IDIxNS42Mzc4MzUsMjI3LjI5NjEwMyAyMjguNjkyMDYzLDIzNC45MDAyOTIgTDIyOS41MjYwNzEsMjM1LjI5Mjc2NiBMMjI5LjUyNjA3MSwyMzUuMzQ2Mjg1IEMyNDIuMTM4NzY1LDI0Mi45NzI3NzMgMjUwLjYwMzcyMSwyNTQuNzg3MTQgMjU0LjE0NDkwOSwyNjguMTEzNDI0IEMyNTcuNzM5NjE2LDI4MS40NjY0NjggMjU2LjIwOTg1OSwyOTYuNDE2MTY5IDI0OC42ODE0ODksMzA5LjQ1NzAxNyBMMjQ4LjIyNjU3NiwzMTAuMzcxMzA0IEwyNDguMTczMDU3LDMxMC4yOTEwMjUgQzI0MC42MDkwMDgsMzIyLjg2MzU4IDIyOC42OTIwNjMsMzMxLjM4MjA1NSAyMTUuNTM1MjU2LDMzNC45ODU2ODMgQzIwMi4wMzUwMzQsMzM4LjU0MDI1IDE4Ny4xMDMxNzMsMzM3LjAyMzg3MyAxNzQuMDYyMzI1LDMyOS41MjY3MjMgTDE3NC4wNjIzMjUsMzI5LjQxOTY4NCBDMTYwLjk1OTAzNywzMjEuODQyMjU1IDE1Mi4yMTc1NjUsMzA5Ljc0MjQ1MyAxNDguNjA5NDc4LDI5Ni4yODY4MzEgQzE0NS44Nzk5OTksMjg2LjI1MTk3OCAxNDYuMDM2MDk2LDI3NS41MDc5OTYgMTQ5LjQzNDU2NiwyNjUuMjQxMjI2IEwxMjQuMTUxMTk4LDI1MC42NTcyNCBDMTIyLjcwMTcxOSwyNTIuNDM2NzU0IDEyMS4xMzE4MjIsMjU0LjEwOTIzIDExOS41MjYyNDUsMjU1LjcyODE4NiBMMTE5LjQ0NTk2NywyNTUuODA0MDA1IEMxMDkuMzM1Mjk1LDI2NS45NDU4OTYgOTYuMDg0ODI5NSwyNzMuMDAxNTEyIDgxLjM1ODEyNTcsMjc1LjM1MTg5OCBMODEuMzU4MTI1NywzMDQuNTY4OTI5IEM5MS44NTIzNTE2LDMwNi43NjMyMTcgMTAxLjI1ODM1NCwzMTIuMDE3MDIgMTA4LjYzMDYyNSwzMTkuMzg0ODMyIEwxMDguNjY2MzA1LDMxOS40NjUxMSBDMTE4LjU0NTA2LDMyOS4yOTAzNDYgMTI0LjY1OTYzLDM0Mi45ODIzNDUgMTI0LjY1OTYzLDM1OC4wMzQ2MjQgQzEyNC42NTk2MywzNzMuMDM3ODQ0IDExOC41NDUwNiwzODYuNjQ1MTA0IDEwOC42NjYzMDUsMzk2LjUyMzg1OSBMMTA4LjYzMDYyNSwzOTYuNjc5OTU3IEM5OC42ODQ5NzEzLDQwNi41NTg3MTIgODUuMDMzMTExNyw0MTIuNjczMjgyIDY5Ljk4MDgzMjcsNDEyLjY3MzI4MiBDNTUuMDA4ODMyNSw0MTIuNjczMjgyIDQxLjMzOTEzMzIsNDA2LjU1ODcxMiAzMS40MjAyMzg4LDM5Ni42Nzk5NTcgTDMxLjM4NDU1OTMsMzk2LjY3OTk1NyBMMzEuMzg0NTU5MywzOTYuNTIzODU5IEMyMS40OTI0MjQ1LDM4Ni42NDUxMDQgMTUuMzY0NDc0NSwzNzMuMDM3ODQ0IDE1LjM2NDQ3NDUsMzU4LjAzNDYyNCBDMTUuMzY0NDc0NSwzNDIuOTgyMzQ1IDIxLjQ5MjQyNDUsMzI5LjI5MDM0NiAzMS4zODQ1NTkzLDMxOS40NjUxMSBMMzEuMzg0NTU5MywzMTkuMzg0ODMyIEwzMS40MjAyMzg4LDMxOS4zODQ4MzIgQzM4Ljc3OTEzMDcsMzEyLjAxNzAyIDQ4LjE5ODUxMjUsMzA2Ljc2MzIxNyA1OC42NjU5Nzg4LDMwNC41Njg5MjkgTDU4LjY2NTk3ODgsMjc1LjM1MTg5OCBDNDMuOTI1ODk1MiwyNzMuMDAxNTEyIDMwLjcxNTU2OTEsMjY1Ljk0NTg5NiAyMC42MTgyNzczLDI1NS44MDQwMDUgTDIwLjUxMTIzODksMjU1LjcyODE4NiBDNy44ODk2MjQxOCwyNDMuMDUzMDUyIDAsMjI1LjYyMzYyOCAwLDIwNi4yODUzNTIgQzAsMTg3LjAwMDU5NSA3Ljg4OTYyNDE4LDE2OS41NzExNzEgMjAuNTExMjM4OSwxNTYuODk2MDM3IEwyMC42MTgyNzczLDE1Ni44OTYwMzcgQzMwLjcxNTU2OTEsMTQ2LjcwNTA4NiA0My45MjU4OTUyLDEzOS42NDk0NyA1OC42NjU5Nzg4LDEzNy4yMjMyNjYgTDU4LjY2NTk3ODgsMTA4LjEzNTU3MyBDNDguMTk4NTEyNSwxMDUuODYxMDA2IDM4Ljc3OTEzMDcsMTAwLjYxMTY2MyAzMS40MjAyMzg4LDkzLjI5MjkxMDUgTDMxLjM4NDU1OTMsOTMuMjkyOTEwNSBMMzEuMzg0NTU5Myw5My4yMTI2MzE3IEMyMS40OTI0MjQ1LDgzLjI4NDgxNzQgMTUuMzY0NDc0NSw2OS42OTUzOTY5IDE1LjM2NDQ3NDUsNTQuNjQzMTE3OSBDMTUuMzY0NDc0NSwzOS42NjY2NTc3IDIxLjQ5MjQyNDUsMjUuOTQ3ODk5MSAzMS4zODQ1NTkzLDE2LjA2OTE0NDEgTDMxLjQyMDIzODgsMTYuMDIwMDg0OCBDNDEuMzM5MTMzMiw2LjExNDU3MDI0IDU1LjAwODgzMjUsMCA2OS45ODA4MzI3LDAgQzg1LjAzMzExMTcsMCA5OC42ODQ5NzEzLDYuMTE0NTcwMjQgMTA4LjYzMDYyNSwxNi4wMjAwODQ4IEwxMDguNjMwNjI1LDE2LjA2OTE0NDEgTDEwOC42NjYzMDUsMTYuMDY5MTQ0MSBDMTE4LjU0NTA2LDI1Ljk0Nzg5OTEgMTI0LjY1OTYzLDM5LjY2NjY1NzcgMTI0LjY1OTYzLDU0LjY0MzExNzkgQzEyNC42NTk2Myw2OS42OTUzOTY5IDExOC41NDUwNiw4My4yODQ4MTc0IDEwOC42NjYzMDUsOTMuMjEyNjMxNyBMMTA4LjYzMDYyNSw5My4yOTI5MTA1IEMxMDEuMjU4MzU0LDEwMC42MTE2NjMgOTEuODUyMzUxNiwxMDUuODYxMDA2IDgxLjM1ODEyNTcsMTA4LjEzNTU3MyBMODEuMzU4MTI1NywxMzcuMjIzMjY2IFogTTIyMy4zNzU4MjEsMTE3LjgzMTQ3IEwyMjMuMTY2MjA0LDExNy41MTkyNzUgQzIxOS42NzQwNzUsMTExLjYzNjYyMSAyMTQuMTA4MDc3LDEwNy43MTYzMzkgMjA3Ljk1MzM2NywxMDYuMDE3MTA0IEMyMDEuNjA2ODgsMTA0LjM0NDYyOCAxOTQuNzU2NDIxLDEwNS4wNTM3NTggMTg4LjY2ODYxLDEwOC41MjgwNDcgTDE4OC43MDg3NSwxMDguNTI4MDQ3IEMxODIuNjM0MzE5LDExMS45NzU1NzYgMTc4LjU3MTMxOSwxMTcuNjIxODUzIDE3Ni44NzIwODQsMTIzLjk0NjA0MSBDMTc1LjE5OTYwOCwxMzAuMjE2NzA4IDE3NS45MzEwMzcsMTM3LjE0Mjk4NyAxNzkuNDIzMTY2LDE0My4xNzcyNzggTDE3OS41MzkxMjQsMTQzLjMzNzgzNiBDMTgzLjA0MDE3MywxNDkuMjkxODQ4IDE4OC42MDYxNzEsMTUzLjI4Nzk1IDE5NC44MjMzMiwxNTQuOTA2OTA2IEMyMDEuMDcxNjg4LDE1Ni42NTk2NiAyMDguMDMzNjQ2LDE1NS45MjgyMzEgMjE0LjAzMjI1OCwxNTIuNDI3MTgyIEwyMTQuMzU3ODMzLDE1Mi4yNzEwODUgQzIyMC4yNjI3ODcsMTQ4Ljc0MzI3NiAyMjQuMTk2NDQ5LDE0My4xNzcyNzggMjI1Ljg0MjE2NSwxMzcuMDYyNzA4IEMyMjcuNTE0NjQsMTMwLjc2NTI4IDIyNi44NTAxMSwxMjMuODY1NzYyIDIyMy4zNzU4MjEsMTE3LjgzMTQ3IFoiIGZpbGw9IiMxQTE5MTkiPgoNPC9wYXRoPgogICAgPC9nPgo8L3N2Zz4=;spacingTop=-7;spacing=0;resizeWidth=0;resizable=0;perimeterSpacing=0;connectable=0;allowArrows=0;" vertex="1" parent="NfmPSXwigL8IRk4kGnXc-15">
          <mxGeometry x="5" y="5" width="30" height="30" as="geometry" />
        </mxCell>
        <mxCell id="NfmPSXwigL8IRk4kGnXc-17" value="Opt change consumer" style="strokeColor=#666666;shadow=1;strokeWidth=2;rounded=1;absoluteArcSize=1;arcSize=2;fillColor=#f5f5f5;fontColor=#333333;spacingTop=10;spacingLeft=28;dropTarget=0;" vertex="1" parent="1">
          <mxGeometry x="568" y="305" width="160" height="40" as="geometry" />
        </mxCell>
        <mxCell id="NfmPSXwigL8IRk4kGnXc-18" value="PCF" style="editableCssRules=.*;html=1;fontColor=#999999;shape=image;verticalLabelPosition=middle;verticalAlign=top;labelPosition=right;align=left;spacingLeft=5;part=1;points=[];imageAspect=0;image=data:image/svg+xml,PD94bWwgdmVyc2lvbj0iMS4wIiBlbmNvZGluZz0idXRmLTgiPz4NCjwhLS0gR2VuZXJhdG9yOiBBZG9iZSBJbGx1c3RyYXRvciAyMy4wLjEsIFNWRyBFeHBvcnQgUGx1Zy1JbiAuIFNWRyBWZXJzaW9uOiA2LjAwIEJ1aWxkIDApICAtLT4NCjxzdmcgdmVyc2lvbj0iMS4xIiBpZD0iTGF5ZXJfMSIgeG1sbnM9Imh0dHA6Ly93d3cudzMub3JnLzIwMDAvc3ZnIiB4bWxuczp4bGluaz0iaHR0cDovL3d3dy53My5vcmcvMTk5OS94bGluayIgeD0iMHB4IiB5PSIwcHgiDQoJIHZpZXdCb3g9IjAgMCAxMDAwIDEwMDAiIHN0eWxlPSJlbmFibGUtYmFja2dyb3VuZDpuZXcgMCAwIDEwMDAgMTAwMDsiIHhtbDpzcGFjZT0icHJlc2VydmUiPg0KPHN0eWxlIHR5cGU9InRleHQvY3NzIj4NCgkuc3Qwe2ZpbGw6IzA0ODg3NTt9DQoJLnN0MXtmaWxsOiMwMEFFOUU7fQ0KPC9zdHlsZT4NCjxnPg0KCTxwYXRoIGNsYXNzPSJzdDAiIGQ9Ik01ODcuOCw3NTEuOWMwLTE2MC40LTEzMi4zLTI5Mi43LTI5Mi43LTI5Mi43UzIuNSw1OTEuNSwyLjUsNzUxLjljMCwyNS4zLDIuOCw1My41LDExLjMsNzguOA0KCQljMi44LDguNCw1LjYsMTkuNyw4LjQsMjhjMi44LDUuNiw1LjYsOC40LDExLjMsOC40aDc4LjhjNi0wLjQsMTAuOC01LjIsMTEuMy0xMS4zYzAtMi44LDAtMi44LTIuOC01LjZsLTguNS0xNi43DQoJCUM3MCw3MzUsMTE1LDYxOS42LDIxMy41LDU3NC42Yzk4LjUtNDIuMiwyMTMuOSwyLjgsMjU4LjksMTAxLjNjMTEuMywyNS4zLDE2LjksNTAuNywxNi45LDc4LjhjMCwyNS4zLTUuNiw1My41LTE2LjksNzguOA0KCQljLTIuOCw1LjYtNS42LDExLjMtOC40LDE5LjdjLTIuOCw1LjYsMCwxMS4zLDUuNiwxNC4xYzIuOCwwLDIuOCwyLjgsNS42LDIuOGg4MS42YzUuNiwwLDguNC0yLjgsMTEuMy04LjRjMi44LTguNCw1LjYtMTkuNyw4LjQtMjgNCgkJYzUuNi0yOCwxMS4zLTU2LjMsMTEuMy04MS42TDU4Ny44LDc1MS45eiIvPg0KCTxwYXRoIGNsYXNzPSJzdDEiIGQ9Ik02MjcuMywzNjMuNWMtMjA1LjUsMC0zNzEuNCwxNjYuMS0zNzEuNCwzNzEuNWMwLDMxLjEsMi44LDY0LjcsMTEuMyw5NS43YzIuOCw4LjQsNS42LDE5LjcsOC40LDI4DQoJCWMyLjgsNS42LDUuNiw4LjQsMTEuMyw4LjRoNzguOGM2LTAuNCwxMC44LTUuMiwxMS4zLTExLjN2LTUuNmMtMi44LTUuNi01LjYtMTQuMS04LjQtMTkuN0MzMTcuOCw2ODcsMzkxLDUyOS40LDUzMS43LDQ3OC43DQoJCXMzMDEsMjIuOCwzNTEuNywxNjMuNGMyMi41LDYwLjgsMjIuNSwxMjcuNywwLDE4OC42Yy0yLjgsNS42LTUuNiwxNC4xLTguNCwxOS43czAsMTEuMyw1LjYsMTQuMUg5NjVjNS42LDAsOC40LTIuOCwxMS4zLTguNA0KCQljMi44LTguNCw1LjYtMTkuNyw4LjQtMjhjNTMuNS0xOTctNjQuNy00MDIuNS0yNjQuNi00NTMuMWMtMjgtOC40LTU5LjEtMTEuMy05Mi45LTExLjNWMzYzLjV6Ii8+DQoJPHBhdGggY2xhc3M9InN0MCIgZD0iTTgzMi43LDQ1OS4yYzAuOC0xODEuMS0xNDUuNC0zMjguNS0zMjYuNS0zMjkuM2MtMC45LDAtMS44LDAtMi44LDBjLTE4MS4xLTAuOC0zMjguNSwxNDUuNC0zMjkuMywzMjYuNQ0KCQljMCwwLjksMCwxLjgsMCwyLjdjMCwxMS4zLDAsMTkuNywyLjgsMzEuMWg5NS43Yy0xNC4xLTEyNi43LDgxLjYtMjQyLDIwOC4zLTI1Ni4xYzEyNi42LTE0LjEsMjQyLDgxLjYsMjU2LjEsMjA4LjN2MjgNCgkJYy0yLjgsNDUtMTkuNyw5MC4xLTQ3LjgsMTI2LjdjLTIuOCw1LjYtMi44LDE0LjEsMi44LDE2LjljMi44LDIuOCw1LjYsMi44LDguNCwyLjhoODQuNGM1LjYsMCw4LjQtMi44LDExLjMtNS42DQoJCWMyMi41LTQyLjIsMzYuNi05Mi45LDM2LjYtMTQwLjdMODMyLjcsNDU5LjJMODMyLjcsNDU5LjJ6Ii8+DQo8L2c+DQo8L3N2Zz4NCg==;spacingTop=-7;spacing=0;connectable=0;allowArrows=0;" vertex="1" parent="NfmPSXwigL8IRk4kGnXc-17">
          <mxGeometry width="30" height="30" relative="1" as="geometry">
            <mxPoint x="5" y="5" as="offset" />
          </mxGeometry>
        </mxCell>
        <mxCell id="NfmPSXwigL8IRk4kGnXc-19" value="BS" style="text;html=1;align=right;verticalAlign=top;whiteSpace=wrap;rounded=0;spacing=4;spacingTop=-6;fontColor=#999999;connectable=0;allowArrows=0;" vertex="1" parent="NfmPSXwigL8IRk4kGnXc-17">
          <mxGeometry x="138" width="22" height="15" as="geometry" />
        </mxCell>
        <mxCell id="NfmPSXwigL8IRk4kGnXc-20" style="edgeStyle=orthogonalEdgeStyle;rounded=0;orthogonalLoop=1;jettySize=auto;html=1;entryX=0;entryY=0.5;entryDx=0;entryDy=0;entryPerimeter=0;strokeWidth=2;" edge="1" parent="1" source="NfmPSXwigL8IRk4kGnXc-4" target="NfmPSXwigL8IRk4kGnXc-15">
          <mxGeometry relative="1" as="geometry" />
        </mxCell>
        <mxCell id="NfmPSXwigL8IRk4kGnXc-26" value="" style="rounded=1;whiteSpace=wrap;html=1;strokeWidth=2;container=1;collapsible=0;recursiveResize=1;fillColor=#f5f5f5;strokeColor=#666666;fontColor=#333333;dropTarget=1;dashed=1;shadow=1;arcSize=2;" vertex="1" parent="1">
          <mxGeometry x="-310" y="170" width="330" height="410" as="geometry" />
        </mxCell>
        <mxCell id="NfmPSXwigL8IRk4kGnXc-27" value="Other Domains" style="text;html=1;align=center;verticalAlign=middle;whiteSpace=wrap;rounded=0;" vertex="1" parent="NfmPSXwigL8IRk4kGnXc-26">
          <mxGeometry x="13" y="10" width="87" height="30" as="geometry" />
        </mxCell>
        <mxCell id="NfmPSXwigL8IRk4kGnXc-28" value="Customer Clients" style="shape=mxgraph.gcp2.doubleRect;strokeColor=#666666;shadow=1;strokeWidth=2;rounded=1;absoluteArcSize=1;arcSize=2;fillColor=#f5f5f5;fontColor=#333333;spacingTop=10;spacingLeft=28;spacingBottom=7;spacingRight=8;dropTarget=0;" vertex="1" parent="NfmPSXwigL8IRk4kGnXc-26">
          <mxGeometry x="80.00000000000011" y="130" width="170.01" height="50" as="geometry" />
        </mxCell>
        <mxCell id="NfmPSXwigL8IRk4kGnXc-29" value="PCF" style="editableCssRules=.*;html=1;fontColor=#999999;shape=image;verticalLabelPosition=middle;verticalAlign=top;labelPosition=right;align=left;spacingLeft=5;part=1;points=[];imageAspect=0;image=data:image/svg+xml,PD94bWwgdmVyc2lvbj0iMS4wIiBlbmNvZGluZz0idXRmLTgiPz4NCjwhLS0gR2VuZXJhdG9yOiBBZG9iZSBJbGx1c3RyYXRvciAyMy4wLjEsIFNWRyBFeHBvcnQgUGx1Zy1JbiAuIFNWRyBWZXJzaW9uOiA2LjAwIEJ1aWxkIDApICAtLT4NCjxzdmcgdmVyc2lvbj0iMS4xIiBpZD0iTGF5ZXJfMSIgeG1sbnM9Imh0dHA6Ly93d3cudzMub3JnLzIwMDAvc3ZnIiB4bWxuczp4bGluaz0iaHR0cDovL3d3dy53My5vcmcvMTk5OS94bGluayIgeD0iMHB4IiB5PSIwcHgiDQoJIHZpZXdCb3g9IjAgMCAxMDAwIDEwMDAiIHN0eWxlPSJlbmFibGUtYmFja2dyb3VuZDpuZXcgMCAwIDEwMDAgMTAwMDsiIHhtbDpzcGFjZT0icHJlc2VydmUiPg0KPHN0eWxlIHR5cGU9InRleHQvY3NzIj4NCgkuc3Qwe2ZpbGw6IzA0ODg3NTt9DQoJLnN0MXtmaWxsOiMwMEFFOUU7fQ0KPC9zdHlsZT4NCjxnPg0KCTxwYXRoIGNsYXNzPSJzdDAiIGQ9Ik01ODcuOCw3NTEuOWMwLTE2MC40LTEzMi4zLTI5Mi43LTI5Mi43LTI5Mi43UzIuNSw1OTEuNSwyLjUsNzUxLjljMCwyNS4zLDIuOCw1My41LDExLjMsNzguOA0KCQljMi44LDguNCw1LjYsMTkuNyw4LjQsMjhjMi44LDUuNiw1LjYsOC40LDExLjMsOC40aDc4LjhjNi0wLjQsMTAuOC01LjIsMTEuMy0xMS4zYzAtMi44LDAtMi44LTIuOC01LjZsLTguNS0xNi43DQoJCUM3MCw3MzUsMTE1LDYxOS42LDIxMy41LDU3NC42Yzk4LjUtNDIuMiwyMTMuOSwyLjgsMjU4LjksMTAxLjNjMTEuMywyNS4zLDE2LjksNTAuNywxNi45LDc4LjhjMCwyNS4zLTUuNiw1My41LTE2LjksNzguOA0KCQljLTIuOCw1LjYtNS42LDExLjMtOC40LDE5LjdjLTIuOCw1LjYsMCwxMS4zLDUuNiwxNC4xYzIuOCwwLDIuOCwyLjgsNS42LDIuOGg4MS42YzUuNiwwLDguNC0yLjgsMTEuMy04LjRjMi44LTguNCw1LjYtMTkuNyw4LjQtMjgNCgkJYzUuNi0yOCwxMS4zLTU2LjMsMTEuMy04MS42TDU4Ny44LDc1MS45eiIvPg0KCTxwYXRoIGNsYXNzPSJzdDEiIGQ9Ik02MjcuMywzNjMuNWMtMjA1LjUsMC0zNzEuNCwxNjYuMS0zNzEuNCwzNzEuNWMwLDMxLjEsMi44LDY0LjcsMTEuMyw5NS43YzIuOCw4LjQsNS42LDE5LjcsOC40LDI4DQoJCWMyLjgsNS42LDUuNiw4LjQsMTEuMyw4LjRoNzguOGM2LTAuNCwxMC44LTUuMiwxMS4zLTExLjN2LTUuNmMtMi44LTUuNi01LjYtMTQuMS04LjQtMTkuN0MzMTcuOCw2ODcsMzkxLDUyOS40LDUzMS43LDQ3OC43DQoJCXMzMDEsMjIuOCwzNTEuNywxNjMuNGMyMi41LDYwLjgsMjIuNSwxMjcuNywwLDE4OC42Yy0yLjgsNS42LTUuNiwxNC4xLTguNCwxOS43czAsMTEuMyw1LjYsMTQuMUg5NjVjNS42LDAsOC40LTIuOCwxMS4zLTguNA0KCQljMi44LTguNCw1LjYtMTkuNyw4LjQtMjhjNTMuNS0xOTctNjQuNy00MDIuNS0yNjQuNi00NTMuMWMtMjgtOC40LTU5LjEtMTEuMy05Mi45LTExLjNWMzYzLjV6Ii8+DQoJPHBhdGggY2xhc3M9InN0MCIgZD0iTTgzMi43LDQ1OS4yYzAuOC0xODEuMS0xNDUuNC0zMjguNS0zMjYuNS0zMjkuM2MtMC45LDAtMS44LDAtMi44LDBjLTE4MS4xLTAuOC0zMjguNSwxNDUuNC0zMjkuMywzMjYuNQ0KCQljMCwwLjksMCwxLjgsMCwyLjdjMCwxMS4zLDAsMTkuNywyLjgsMzEuMWg5NS43Yy0xNC4xLTEyNi43LDgxLjYtMjQyLDIwOC4zLTI1Ni4xYzEyNi42LTE0LjEsMjQyLDgxLjYsMjU2LjEsMjA4LjN2MjgNCgkJYy0yLjgsNDUtMTkuNyw5MC4xLTQ3LjgsMTI2LjdjLTIuOCw1LjYtMi44LDE0LjEsMi44LDE2LjljMi44LDIuOCw1LjYsMi44LDguNCwyLjhoODQuNGM1LjYsMCw4LjQtMi44LDExLjMtNS42DQoJCWMyMi41LTQyLjIsMzYuNi05Mi45LDM2LjYtMTQwLjdMODMyLjcsNDU5LjJMODMyLjcsNDU5LjJ6Ii8+DQo8L2c+DQo8L3N2Zz4NCg==;spacingTop=-7;spacing=0;resizeHeight=0;resizeWidth=0;movable=0;connectable=0;allowArrows=0;" vertex="1" parent="NfmPSXwigL8IRk4kGnXc-28">
          <mxGeometry width="30" height="30" relative="1" as="geometry">
            <mxPoint x="5" y="5" as="offset" />
          </mxGeometry>
        </mxCell>
        <mxCell id="NfmPSXwigL8IRk4kGnXc-30" value="BS" style="text;html=1;align=right;verticalAlign=top;whiteSpace=wrap;rounded=0;spacing=4;spacingTop=-6;fontColor=#999999;spacingRight=7;connectable=0;allowArrows=0;" vertex="1" parent="NfmPSXwigL8IRk4kGnXc-28">
          <mxGeometry x="140.14" width="29.87" height="15" as="geometry" />
        </mxCell>
        <mxCell id="NfmPSXwigL8IRk4kGnXc-31" style="edgeStyle=orthogonalEdgeStyle;rounded=0;orthogonalLoop=1;jettySize=auto;html=1;strokeWidth=2;" edge="1" parent="1" source="NfmPSXwigL8IRk4kGnXc-28" target="NfmPSXwigL8IRk4kGnXc-4">
          <mxGeometry relative="1" as="geometry" />
        </mxCell>
        <mxCell id="NfmPSXwigL8IRk4kGnXc-34" style="edgeStyle=orthogonalEdgeStyle;rounded=0;orthogonalLoop=1;jettySize=auto;html=1;entryX=0;entryY=0.5;entryDx=0;entryDy=0;curved=1;strokeWidth=2;" edge="1" parent="1" source="NfmPSXwigL8IRk4kGnXc-28" target="NfmPSXwigL8IRk4kGnXc-7">
          <mxGeometry relative="1" as="geometry" />
        </mxCell>
      </root>
    </mxGraphModel>
  </diagram>
</mxfile>
